<?xml version="1.0" encoding="UTF-8"?>
<?xml-stylesheet href="https://cdnjs.cloudflare.com/ajax/libs/font-awesome/6.7.2/css/all.min.css" type="text/css"?>
<svg aria-roledescription="flowchart-v2" role="graphics-document document" style="overflow: hidden; max-width: 100%; touch-action: none; user-select: none; -webkit-user-drag: none; -webkit-tap-highlight-color: rgba(0, 0, 0, 0);" class="flowchart" xmlns="http://www.w3.org/2000/svg" width="100%" id="graph-220" height="100%" xmlns:xlink="http://www.w3.org/1999/xlink" xmlns:ev="http://www.w3.org/2001/xml-events"><g id="viewport-20250512150744339" class="svg-pan-zoom_viewport" transform="matrix(0.5035971103187994,0,0,0.5035971103187994,150.74992234047167,289.9407619400994)" style="transform: matrix(0.503597, 0, 0, 0.503597, 150.75, 289.941);"><style>#graph-220{font-family:"trebuchet ms",verdana,arial,sans-serif;font-size:16px;fill:#ccc;}@keyframes edge-animation-frame{from{stroke-dashoffset:0;}}@keyframes dash{to{stroke-dashoffset:0;}}#graph-220 .edge-animation-slow{stroke-dasharray:9,5!important;stroke-dashoffset:900;animation:dash 50s linear infinite;stroke-linecap:round;}#graph-220 .edge-animation-fast{stroke-dasharray:9,5!important;stroke-dashoffset:900;animation:dash 20s linear infinite;stroke-linecap:round;}#graph-220 .error-icon{fill:#a44141;}#graph-220 .error-text{fill:#ddd;stroke:#ddd;}#graph-220 .edge-thickness-normal{stroke-width:1px;}#graph-220 .edge-thickness-thick{stroke-width:3.5px;}#graph-220 .edge-pattern-solid{stroke-dasharray:0;}#graph-220 .edge-thickness-invisible{stroke-width:0;fill:none;}#graph-220 .edge-pattern-dashed{stroke-dasharray:3;}#graph-220 .edge-pattern-dotted{stroke-dasharray:2;}#graph-220 .marker{fill:lightgrey;stroke:lightgrey;}#graph-220 .marker.cross{stroke:lightgrey;}#graph-220 svg{font-family:"trebuchet ms",verdana,arial,sans-serif;font-size:16px;}#graph-220 p{margin:0;}#graph-220 .label{font-family:"trebuchet ms",verdana,arial,sans-serif;color:#ccc;}#graph-220 .cluster-label text{fill:#F9FFFE;}#graph-220 .cluster-label span{color:#F9FFFE;}#graph-220 .cluster-label span p{background-color:transparent;}#graph-220 .label text,#graph-220 span{fill:#ccc;color:#ccc;}#graph-220 .node rect,#graph-220 .node circle,#graph-220 .node ellipse,#graph-220 .node polygon,#graph-220 .node path{fill:#1f2020;stroke:#ccc;stroke-width:1px;}#graph-220 .rough-node .label text,#graph-220 .node .label text,#graph-220 .image-shape .label,#graph-220 .icon-shape .label{text-anchor:middle;}#graph-220 .node .katex path{fill:#000;stroke:#000;stroke-width:1px;}#graph-220 .rough-node .label,#graph-220 .node .label,#graph-220 .image-shape .label,#graph-220 .icon-shape .label{text-align:center;}#graph-220 .node.clickable{cursor:pointer;}#graph-220 .root .anchor path{fill:lightgrey!important;stroke-width:0;stroke:lightgrey;}#graph-220 .arrowheadPath{fill:lightgrey;}#graph-220 .edgePath .path{stroke:lightgrey;stroke-width:2.0px;}#graph-220 .flowchart-link{stroke:lightgrey;fill:none;}#graph-220 .edgeLabel{background-color:hsl(0, 0%, 34.4117647059%);text-align:center;}#graph-220 .edgeLabel p{background-color:hsl(0, 0%, 34.4117647059%);}#graph-220 .edgeLabel rect{opacity:0.5;background-color:hsl(0, 0%, 34.4117647059%);fill:hsl(0, 0%, 34.4117647059%);}#graph-220 .labelBkg{background-color:rgba(87.75, 87.75, 87.75, 0.5);}#graph-220 .cluster rect{fill:hsl(180, 1.5873015873%, 28.3529411765%);stroke:rgba(255, 255, 255, 0.25);stroke-width:1px;}#graph-220 .cluster text{fill:#F9FFFE;}#graph-220 .cluster span{color:#F9FFFE;}#graph-220 div.mermaidTooltip{position:absolute;text-align:center;max-width:200px;padding:2px;font-family:"trebuchet ms",verdana,arial,sans-serif;font-size:12px;background:hsl(20, 1.5873015873%, 12.3529411765%);border:1px solid rgba(255, 255, 255, 0.25);border-radius:2px;pointer-events:none;z-index:100;}#graph-220 .flowchartTitleText{text-anchor:middle;font-size:18px;fill:#ccc;}#graph-220 rect.text{fill:none;stroke-width:0;}#graph-220 .icon-shape,#graph-220 .image-shape{background-color:hsl(0, 0%, 34.4117647059%);text-align:center;}#graph-220 .icon-shape p,#graph-220 .image-shape p{background-color:hsl(0, 0%, 34.4117647059%);padding:2px;}#graph-220 .icon-shape rect,#graph-220 .image-shape rect{opacity:0.5;background-color:hsl(0, 0%, 34.4117647059%);fill:hsl(0, 0%, 34.4117647059%);}#graph-220 :root{--mermaid-font-family:"trebuchet ms",verdana,arial,sans-serif;}</style><g><marker orient="auto" markerHeight="8" markerWidth="8" markerUnits="userSpaceOnUse" refY="5" refX="5" viewBox="0 0 10 10" class="marker flowchart-v2" id="graph-220_flowchart-v2-pointEnd"><path style="stroke-width: 1; stroke-dasharray: 1, 0;" class="arrowMarkerPath" d="M 0 0 L 10 5 L 0 10 z"></path></marker><marker orient="auto" markerHeight="8" markerWidth="8" markerUnits="userSpaceOnUse" refY="5" refX="4.5" viewBox="0 0 10 10" class="marker flowchart-v2" id="graph-220_flowchart-v2-pointStart"><path style="stroke-width: 1; stroke-dasharray: 1, 0;" class="arrowMarkerPath" d="M 0 5 L 10 10 L 10 0 z"></path></marker><marker orient="auto" markerHeight="11" markerWidth="11" markerUnits="userSpaceOnUse" refY="5" refX="11" viewBox="0 0 10 10" class="marker flowchart-v2" id="graph-220_flowchart-v2-circleEnd"><circle style="stroke-width: 1; stroke-dasharray: 1, 0;" class="arrowMarkerPath" r="5" cy="5" cx="5"></circle></marker><marker orient="auto" markerHeight="11" markerWidth="11" markerUnits="userSpaceOnUse" refY="5" refX="-1" viewBox="0 0 10 10" class="marker flowchart-v2" id="graph-220_flowchart-v2-circleStart"><circle style="stroke-width: 1; stroke-dasharray: 1, 0;" class="arrowMarkerPath" r="5" cy="5" cx="5"></circle></marker><marker orient="auto" markerHeight="11" markerWidth="11" markerUnits="userSpaceOnUse" refY="5.2" refX="12" viewBox="0 0 11 11" class="marker cross flowchart-v2" id="graph-220_flowchart-v2-crossEnd"><path style="stroke-width: 2; stroke-dasharray: 1, 0;" class="arrowMarkerPath" d="M 1,1 l 9,9 M 10,1 l -9,9"></path></marker><marker orient="auto" markerHeight="11" markerWidth="11" markerUnits="userSpaceOnUse" refY="5.2" refX="-1" viewBox="0 0 11 11" class="marker cross flowchart-v2" id="graph-220_flowchart-v2-crossStart"><path style="stroke-width: 2; stroke-dasharray: 1, 0;" class="arrowMarkerPath" d="M 1,1 l 9,9 M 10,1 l -9,9"></path></marker><g class="root"><g class="clusters"><g data-look="classic" id="subGraph4" class="cluster"><rect height="411" width="474.0999984741211" y="216" x="8" style=""></rect><g transform="translate(172.16249465942383, 216)" class="cluster-label"><foreignObject height="24" width="145.77500915527344"><div style="display: table-cell; white-space: nowrap; line-height: 1.5; max-width: 200px; text-align: center;" xmlns="http://www.w3.org/1999/xhtml"><span class="nodeLabel"><p>📈 Monitoring Stack</p></span></div></foreignObject></g></g><g data-look="classic" id="subGraph3" class="cluster"><rect height="362" width="556.2000045776367" y="523" x="874.3187484741211" style=""></rect><g transform="translate(1096.943748474121, 523)" class="cluster-label"><foreignObject height="24" width="110.95000457763672"><div style="display: table-cell; white-space: nowrap; line-height: 1.5; max-width: 200px; text-align: center;" xmlns="http://www.w3.org/1999/xhtml"><span class="nodeLabel"><p>🎥 NVR System</p></span></div></foreignObject></g></g><g data-look="classic" id="subGraph2" class="cluster"><rect height="233" width="265.0625" y="523" x="1450.5187530517578" style=""></rect><g transform="translate(1525.7375030517578, 523)" class="cluster-label"><foreignObject height="24" width="114.625"><div style="display: table-cell; white-space: nowrap; line-height: 1.5; max-width: 200px; text-align: center;" xmlns="http://www.w3.org/1999/xhtml"><span class="nodeLabel"><p>📡 Smart Home</p></span></div></foreignObject></g></g><g data-look="classic" id="subGraph1" class="cluster"><rect height="540" width="308.40625381469727" y="216" x="1735.5812530517578" style=""></rect><g transform="translate(1825.7093753814697, 216)" class="cluster-label"><foreignObject height="24" width="128.15000915527344"><div style="display: table-cell; white-space: nowrap; line-height: 1.5; max-width: 200px; text-align: center;" xmlns="http://www.w3.org/1999/xhtml"><span class="nodeLabel"><p>🛡️ Security Stack</p></span></div></foreignObject></g></g><g data-look="classic" id="subGraph0" class="cluster"><rect height="104" width="718.6937522888184" y="369" x="793.3375015258789" style=""></rect><g transform="translate(1089.746877670288, 369)" class="cluster-label"><foreignObject height="24" width="125.875"><div style="display: table-cell; white-space: nowrap; line-height: 1.5; max-width: 200px; text-align: center;" xmlns="http://www.w3.org/1999/xhtml"><span class="nodeLabel"><p>🔁 Reverse Proxy</p></span></div></foreignObject></g></g></g><g class="edgePaths"><path marker-end="url(#graph-220_flowchart-v2-pointEnd)" style="" class="edge-thickness-normal edge-pattern-solid edge-thickness-normal edge-pattern-solid flowchart-link" id="L_RemoteUser_katoGeek_0" d="M1612.081,62L1612.081,66.167C1612.081,70.333,1612.081,78.667,1612.081,86.333C1612.081,94,1612.081,101,1612.081,104.5L1612.081,108"></path><path marker-end="url(#graph-220_flowchart-v2-pointEnd)" style="" class="edge-thickness-normal edge-pattern-solid edge-thickness-normal edge-pattern-solid flowchart-link" id="L_katoGeek_Authelia_0" d="M1708.731,155.798L1742.489,161.665C1776.246,167.532,1843.76,179.266,1877.518,189.3C1911.275,199.333,1911.275,207.667,1911.275,215.333C1911.275,223,1911.275,230,1911.275,233.5L1911.275,237"></path><path marker-end="url(#graph-220_flowchart-v2-pointEnd)" style="" class="edge-thickness-normal edge-pattern-solid edge-thickness-normal edge-pattern-solid flowchart-link" id="L_Authelia_Homepage_0" d="M1880.121,295L1873.005,301.167C1865.89,307.333,1851.659,319.667,1844.544,332C1837.428,344.333,1837.428,356.667,1658.246,370.6C1479.063,384.533,1120.699,400.066,941.516,407.832L762.334,415.599"></path><path marker-end="url(#graph-220_flowchart-v2-pointEnd)" style="" class="edge-thickness-normal edge-pattern-solid edge-thickness-normal edge-pattern-solid flowchart-link" id="L_Homepage_Frigate_0" d="M758.338,428.013L887.286,435.511C1016.235,443.009,1274.133,458.004,1350.79,469.669C1427.447,481.333,1322.863,489.667,1270.57,498C1218.278,506.333,1218.278,514.667,1214.711,522.521C1211.143,530.375,1204.008,537.75,1200.441,541.438L1196.874,545.125"></path><path marker-end="url(#graph-220_flowchart-v2-pointEnd)" style="" class="edge-thickness-normal edge-pattern-solid edge-thickness-normal edge-pattern-solid flowchart-link" id="L_Homepage_HomeAssistant_0" d="M758.338,427.262L905.167,434.885C1051.997,442.508,1345.656,457.754,1492.486,469.544C1639.316,481.333,1639.316,489.667,1639.316,498C1639.316,506.333,1639.316,514.667,1635.297,522.548C1631.278,530.428,1623.24,537.857,1619.221,541.571L1615.202,545.285"></path><path marker-end="url(#graph-220_flowchart-v2-pointEnd)" style="" class="edge-thickness-normal edge-pattern-solid edge-thickness-normal edge-pattern-solid flowchart-link" id="L_Homepage_Portainer_0" d="M637.719,448L637.719,452.167C637.719,456.333,637.719,464.667,656.516,473C675.313,481.333,712.906,489.667,731.703,498C750.5,506.333,750.5,514.667,749.825,522.345C749.149,530.024,747.798,537.048,747.123,540.56L746.448,544.072"></path><path marker-end="url(#graph-220_flowchart-v2-pointEnd)" style="" class="edge-thickness-normal edge-pattern-solid edge-thickness-normal edge-pattern-solid flowchart-link" id="L_Homepage_UptimeKuma_0" d="M517.1,433.73L455.084,440.275C393.069,446.82,269.037,459.91,207.022,470.622C145.006,481.333,145.006,489.667,145.006,498C145.006,506.333,145.006,514.667,144.331,522.345C143.655,530.024,142.305,537.048,141.629,540.56L140.954,544.072"></path><path marker-end="url(#graph-220_flowchart-v2-pointEnd)" style="" class="edge-thickness-normal edge-pattern-solid edge-thickness-normal edge-pattern-solid flowchart-link" id="L_Homepage_pgAdmin_0" d="M758.338,425.957L949.108,433.798C1139.879,441.638,1521.421,457.319,1712.192,469.326C1902.963,481.333,1902.963,489.667,1902.963,498C1902.963,506.333,1902.963,514.667,1899.818,522.494C1896.673,530.322,1890.383,537.644,1887.238,541.305L1884.094,544.966"></path><path marker-end="url(#graph-220_flowchart-v2-pointEnd)" style="" class="edge-thickness-normal edge-pattern-solid edge-thickness-normal edge-pattern-solid flowchart-link" id="L_Homepage_Grafana_0" d="M529.175,448L512.425,452.167C495.674,456.333,462.173,464.667,445.422,473C428.672,481.333,428.672,489.667,428.672,498C428.672,506.333,428.672,514.667,423.598,522.602C418.524,530.538,408.376,538.077,403.302,541.846L398.228,545.615"></path><path marker-end="url(#graph-220_flowchart-v2-pointEnd)" style="" class="edge-thickness-normal edge-pattern-solid edge-thickness-normal edge-pattern-solid flowchart-link" id="L_katoGeek_Traefik_0" d="M1515.431,149.362L1450.703,156.302C1385.975,163.241,1256.519,177.121,1191.791,188.227C1127.063,199.333,1127.063,207.667,1127.063,220.5C1127.063,233.333,1127.063,250.667,1127.063,270C1127.063,289.333,1127.063,310.667,1127.063,327.5C1127.063,344.333,1127.063,356.667,1127.063,366.333C1127.063,376,1127.063,383,1127.063,386.5L1127.063,390"></path><path marker-end="url(#graph-220_flowchart-v2-pointEnd)" style="" class="edge-thickness-normal edge-pattern-solid edge-thickness-normal edge-pattern-solid flowchart-link" id="L_Traefik_Frigate_0" d="M1059.094,445.323L1046.204,449.936C1033.314,454.549,1007.533,463.774,994.643,472.554C981.753,481.333,981.753,489.667,981.753,498C981.753,506.333,981.753,514.667,997.879,523.336C1014.004,532.006,1046.256,541.012,1062.381,545.515L1078.507,550.018"></path><path marker-end="url(#graph-220_flowchart-v2-pointEnd)" style="" class="edge-thickness-normal edge-pattern-solid edge-thickness-normal edge-pattern-solid flowchart-link" id="L_Traefik_HomeAssistant_0" d="M1195.031,442.752L1210.784,447.793C1226.536,452.835,1258.042,462.917,1315.001,472.125C1371.959,481.333,1454.372,489.667,1495.578,498C1536.784,506.333,1536.784,514.667,1540.048,522.502C1543.312,530.337,1549.841,537.674,1553.105,541.343L1556.369,545.012"></path><path marker-end="url(#graph-220_flowchart-v2-pointEnd)" style="" class="edge-thickness-normal edge-pattern-solid edge-thickness-normal edge-pattern-solid flowchart-link" id="L_Traefik_Portainer_0" d="M1059.094,437.316L1034.319,443.263C1009.544,449.211,959.994,461.105,905.228,471.219C850.463,481.333,790.481,489.667,760.491,498C730.5,506.333,730.5,514.667,731.175,522.345C731.851,530.024,733.202,537.048,733.877,540.56L734.552,544.072"></path><path marker-end="url(#graph-220_flowchart-v2-pointEnd)" style="" class="edge-thickness-normal edge-pattern-solid edge-thickness-normal edge-pattern-solid flowchart-link" id="L_Traefik_UptimeKuma_0" d="M1059.094,434.478L1026.715,440.898C994.336,447.318,929.579,460.159,766.647,470.746C603.716,481.333,342.609,489.667,212.056,498C81.503,506.333,81.503,514.667,85.312,522.535C89.121,530.404,96.739,537.808,100.548,541.51L104.357,545.212"></path><path marker-end="url(#graph-220_flowchart-v2-pointEnd)" style="" class="edge-thickness-normal edge-pattern-solid edge-thickness-normal edge-pattern-solid flowchart-link" id="L_Traefik_pgAdmin_0" d="M1195.031,440.368L1214.117,445.807C1233.203,451.245,1271.375,462.123,1374.474,471.728C1477.573,481.333,1645.599,489.667,1729.612,498C1813.625,506.333,1813.625,514.667,1816.77,522.494C1819.915,530.322,1826.204,537.644,1829.349,541.305L1832.494,544.966"></path><path marker-end="url(#graph-220_flowchart-v2-pointEnd)" style="" class="edge-thickness-normal edge-pattern-solid edge-thickness-normal edge-pattern-solid flowchart-link" id="L_Traefik_Grafana_0" d="M1059.094,435.937L1030.985,442.114C1002.877,448.291,946.66,460.646,838.257,470.99C729.853,481.333,569.263,489.667,488.967,498C408.672,506.333,408.672,514.667,405.127,522.519C401.583,530.372,394.494,537.745,390.949,541.431L387.404,545.117"></path><path marker-end="url(#graph-220_flowchart-v2-pointEnd)" style="" class="edge-thickness-normal edge-pattern-solid edge-thickness-normal edge-pattern-solid flowchart-link" id="L_Traefik_Compreface_0" d="M1156.384,448L1160.909,452.167C1165.434,456.333,1174.484,464.667,1208.379,473C1242.274,481.333,1301.014,489.667,1330.383,498C1359.753,506.333,1359.753,514.667,1359.753,527.5C1359.753,540.333,1359.753,557.667,1359.753,575C1359.753,592.333,1359.753,609.667,1359.753,622.5C1359.753,635.333,1359.753,643.667,1359.753,656.5C1359.753,669.333,1359.753,686.667,1359.753,704C1359.753,721.333,1359.753,738.667,1359.753,751.5C1359.753,764.333,1359.753,772.667,1354.656,780.604C1349.558,788.54,1339.363,796.081,1334.266,799.851L1329.168,803.621"></path><path marker-end="url(#graph-220_flowchart-v2-pointEnd)" style="" class="edge-thickness-normal edge-pattern-solid edge-thickness-normal edge-pattern-solid flowchart-link" id="L_Traefik_DoubleTake_0" d="M1119.431,448L1118.254,452.167C1117.076,456.333,1114.721,464.667,1142.913,473C1171.105,481.333,1229.845,489.667,1259.215,498C1288.584,506.333,1288.584,514.667,1288.584,527.5C1288.584,540.333,1288.584,557.667,1288.584,575C1288.584,592.333,1288.584,609.667,1288.584,622.5C1288.584,635.333,1288.584,643.667,1284.257,651.565C1279.93,659.463,1271.275,666.925,1266.948,670.657L1262.62,674.388"></path><path marker-end="url(#graph-220_flowchart-v2-pointEnd)" style="" class="edge-thickness-normal edge-pattern-solid edge-thickness-normal edge-pattern-solid flowchart-link" id="L_Authelia_PostgreSQL_0" d="M1935.05,295L1940.48,301.167C1945.911,307.333,1956.771,319.667,1962.201,332C1967.631,344.333,1967.631,356.667,1967.631,371.5C1967.631,386.333,1967.631,403.667,1967.631,421C1967.631,438.333,1967.631,455.667,1967.631,468.5C1967.631,481.333,1967.631,489.667,1967.631,498C1967.631,506.333,1967.631,514.667,1967.631,527.5C1967.631,540.333,1967.631,557.667,1967.631,575C1967.631,592.333,1967.631,609.667,1967.631,622.5C1967.631,635.333,1967.631,643.667,1963.734,651.541C1959.836,659.414,1952.041,666.829,1948.144,670.536L1944.246,674.243"></path><path marker-end="url(#graph-220_flowchart-v2-pointEnd)" style="" class="edge-thickness-normal edge-pattern-solid edge-thickness-normal edge-pattern-solid flowchart-link" id="L_pgAdmin_PostgreSQL_0" d="M1858.294,602L1858.294,606.167C1858.294,610.333,1858.294,618.667,1858.294,627C1858.294,635.333,1858.294,643.667,1862.191,651.541C1866.089,659.414,1873.884,666.829,1877.781,670.536L1881.679,674.243"></path><path marker-end="url(#graph-220_flowchart-v2-pointEnd)" style="" class="edge-thickness-normal edge-pattern-solid edge-thickness-normal edge-pattern-solid flowchart-link" id="L_HomeAssistant_Mosquitto_0" d="M1583.05,602L1583.05,606.167C1583.05,610.333,1583.05,618.667,1583.05,627C1583.05,635.333,1583.05,643.667,1583.05,651.333C1583.05,659,1583.05,666,1583.05,669.5L1583.05,673"></path><path marker-end="url(#graph-220_flowchart-v2-pointEnd)" style="" class="edge-thickness-normal edge-pattern-solid edge-thickness-normal edge-pattern-solid flowchart-link" id="L_Frigate_DoubleTake_0" d="M1167.972,602L1167.972,606.167C1167.972,610.333,1167.972,618.667,1167.972,627C1167.972,635.333,1167.972,643.667,1172.299,651.565C1176.627,659.463,1185.281,666.925,1189.609,670.657L1193.936,674.388"></path><path marker-end="url(#graph-220_flowchart-v2-pointEnd)" style="" class="edge-thickness-normal edge-pattern-solid edge-thickness-normal edge-pattern-solid flowchart-link" id="L_DoubleTake_Compreface_0" d="M1228.278,731L1228.278,735.167C1228.278,739.333,1228.278,747.667,1228.278,756C1228.278,764.333,1228.278,772.667,1232.672,780.568C1237.065,788.47,1245.852,795.939,1250.245,799.674L1254.639,803.409"></path><path marker-end="url(#graph-220_flowchart-v2-pointEnd)" style="" class="edge-thickness-normal edge-pattern-solid edge-thickness-normal edge-pattern-solid flowchart-link" id="L_Prometheus_Grafana_0" d="M358.469,448L358.469,452.167C358.469,456.333,358.469,464.667,358.469,473C358.469,481.333,358.469,489.667,358.469,498C358.469,506.333,358.469,514.667,358.482,522.333C358.496,530,358.523,537,358.536,540.5L358.55,544"></path><path marker-end="url(#graph-220_flowchart-v2-pointEnd)" style="" class="edge-thickness-normal edge-pattern-solid edge-thickness-normal edge-pattern-solid flowchart-link" id="L_Loki_Grafana_0" d="M165.006,448L165.006,452.167C165.006,456.333,165.006,464.667,165.006,473C165.006,481.333,165.006,489.667,165.006,498C165.006,506.333,165.006,514.667,184.663,524.111C204.321,533.556,243.635,544.112,263.292,549.391L282.949,554.669"></path><path marker-end="url(#graph-220_flowchart-v2-pointEnd)" style="" class="edge-thickness-normal edge-pattern-solid edge-thickness-normal edge-pattern-solid flowchart-link" id="L_cAdvisor_Prometheus_0" d="M358.469,295L358.469,301.167C358.469,307.333,358.469,319.667,358.469,332C358.469,344.333,358.469,356.667,358.469,366.333C358.469,376,358.469,383,358.469,386.5L358.469,390"></path></g><g class="edgeLabels"><g class="edgeLabel"><g transform="translate(0, 0)" class="label"><foreignObject height="0" width="0"><div style="display: table-cell; white-space: nowrap; line-height: 1.5; max-width: 200px; text-align: center;" class="labelBkg" xmlns="http://www.w3.org/1999/xhtml"><span class="edgeLabel"></span></div></foreignObject></g></g><g class="edgeLabel"><g transform="translate(0, 0)" class="label"><foreignObject height="0" width="0"><div style="display: table-cell; white-space: nowrap; line-height: 1.5; max-width: 200px; text-align: center;" class="labelBkg" xmlns="http://www.w3.org/1999/xhtml"><span class="edgeLabel"></span></div></foreignObject></g></g><g transform="translate(1837.428129196167, 332)" class="edgeLabel"><g transform="translate(-50.98125076293945, -12)" class="label"><foreignObject height="24" width="101.9625015258789"><div style="display: table-cell; white-space: nowrap; line-height: 1.5; max-width: 200px; text-align: center;" class="labelBkg" xmlns="http://www.w3.org/1999/xhtml"><span class="edgeLabel"><p>Authenticated</p></span></div></foreignObject></g></g><g class="edgeLabel"><g transform="translate(0, 0)" class="label"><foreignObject height="0" width="0"><div style="display: table-cell; white-space: nowrap; line-height: 1.5; max-width: 200px; text-align: center;" class="labelBkg" xmlns="http://www.w3.org/1999/xhtml"><span class="edgeLabel"></span></div></foreignObject></g></g><g class="edgeLabel"><g transform="translate(0, 0)" class="label"><foreignObject height="0" width="0"><div style="display: table-cell; white-space: nowrap; line-height: 1.5; max-width: 200px; text-align: center;" class="labelBkg" xmlns="http://www.w3.org/1999/xhtml"><span class="edgeLabel"></span></div></foreignObject></g></g><g class="edgeLabel"><g transform="translate(0, 0)" class="label"><foreignObject height="0" width="0"><div style="display: table-cell; white-space: nowrap; line-height: 1.5; max-width: 200px; text-align: center;" class="labelBkg" xmlns="http://www.w3.org/1999/xhtml"><span class="edgeLabel"></span></div></foreignObject></g></g><g class="edgeLabel"><g transform="translate(0, 0)" class="label"><foreignObject height="0" width="0"><div style="display: table-cell; white-space: nowrap; line-height: 1.5; max-width: 200px; text-align: center;" class="labelBkg" xmlns="http://www.w3.org/1999/xhtml"><span class="edgeLabel"></span></div></foreignObject></g></g><g class="edgeLabel"><g transform="translate(0, 0)" class="label"><foreignObject height="0" width="0"><div style="display: table-cell; white-space: nowrap; line-height: 1.5; max-width: 200px; text-align: center;" class="labelBkg" xmlns="http://www.w3.org/1999/xhtml"><span class="edgeLabel"></span></div></foreignObject></g></g><g class="edgeLabel"><g transform="translate(0, 0)" class="label"><foreignObject height="0" width="0"><div style="display: table-cell; white-space: nowrap; line-height: 1.5; max-width: 200px; text-align: center;" class="labelBkg" xmlns="http://www.w3.org/1999/xhtml"><span class="edgeLabel"></span></div></foreignObject></g></g><g class="edgeLabel"><g transform="translate(0, 0)" class="label"><foreignObject height="0" width="0"><div style="display: table-cell; white-space: nowrap; line-height: 1.5; max-width: 200px; text-align: center;" class="labelBkg" xmlns="http://www.w3.org/1999/xhtml"><span class="edgeLabel"></span></div></foreignObject></g></g><g class="edgeLabel"><g transform="translate(0, 0)" class="label"><foreignObject height="0" width="0"><div style="display: table-cell; white-space: nowrap; line-height: 1.5; max-width: 200px; text-align: center;" class="labelBkg" xmlns="http://www.w3.org/1999/xhtml"><span class="edgeLabel"></span></div></foreignObject></g></g><g class="edgeLabel"><g transform="translate(0, 0)" class="label"><foreignObject height="0" width="0"><div style="display: table-cell; white-space: nowrap; line-height: 1.5; max-width: 200px; text-align: center;" class="labelBkg" xmlns="http://www.w3.org/1999/xhtml"><span class="edgeLabel"></span></div></foreignObject></g></g><g class="edgeLabel"><g transform="translate(0, 0)" class="label"><foreignObject height="0" width="0"><div style="display: table-cell; white-space: nowrap; line-height: 1.5; max-width: 200px; text-align: center;" class="labelBkg" xmlns="http://www.w3.org/1999/xhtml"><span class="edgeLabel"></span></div></foreignObject></g></g><g class="edgeLabel"><g transform="translate(0, 0)" class="label"><foreignObject height="0" width="0"><div style="display: table-cell; white-space: nowrap; line-height: 1.5; max-width: 200px; text-align: center;" class="labelBkg" xmlns="http://www.w3.org/1999/xhtml"><span class="edgeLabel"></span></div></foreignObject></g></g><g class="edgeLabel"><g transform="translate(0, 0)" class="label"><foreignObject height="0" width="0"><div style="display: table-cell; white-space: nowrap; line-height: 1.5; max-width: 200px; text-align: center;" class="labelBkg" xmlns="http://www.w3.org/1999/xhtml"><span class="edgeLabel"></span></div></foreignObject></g></g><g class="edgeLabel"><g transform="translate(0, 0)" class="label"><foreignObject height="0" width="0"><div style="display: table-cell; white-space: nowrap; line-height: 1.5; max-width: 200px; text-align: center;" class="labelBkg" xmlns="http://www.w3.org/1999/xhtml"><span class="edgeLabel"></span></div></foreignObject></g></g><g class="edgeLabel"><g transform="translate(0, 0)" class="label"><foreignObject height="0" width="0"><div style="display: table-cell; white-space: nowrap; line-height: 1.5; max-width: 200px; text-align: center;" class="labelBkg" xmlns="http://www.w3.org/1999/xhtml"><span class="edgeLabel"></span></div></foreignObject></g></g><g class="edgeLabel"><g transform="translate(0, 0)" class="label"><foreignObject height="0" width="0"><div style="display: table-cell; white-space: nowrap; line-height: 1.5; max-width: 200px; text-align: center;" class="labelBkg" xmlns="http://www.w3.org/1999/xhtml"><span class="edgeLabel"></span></div></foreignObject></g></g><g class="edgeLabel"><g transform="translate(0, 0)" class="label"><foreignObject height="0" width="0"><div style="display: table-cell; white-space: nowrap; line-height: 1.5; max-width: 200px; text-align: center;" class="labelBkg" xmlns="http://www.w3.org/1999/xhtml"><span class="edgeLabel"></span></div></foreignObject></g></g><g class="edgeLabel"><g transform="translate(0, 0)" class="label"><foreignObject height="0" width="0"><div style="display: table-cell; white-space: nowrap; line-height: 1.5; max-width: 200px; text-align: center;" class="labelBkg" xmlns="http://www.w3.org/1999/xhtml"><span class="edgeLabel"></span></div></foreignObject></g></g><g class="edgeLabel"><g transform="translate(0, 0)" class="label"><foreignObject height="0" width="0"><div style="display: table-cell; white-space: nowrap; line-height: 1.5; max-width: 200px; text-align: center;" class="labelBkg" xmlns="http://www.w3.org/1999/xhtml"><span class="edgeLabel"></span></div></foreignObject></g></g><g class="edgeLabel"><g transform="translate(0, 0)" class="label"><foreignObject height="0" width="0"><div style="display: table-cell; white-space: nowrap; line-height: 1.5; max-width: 200px; text-align: center;" class="labelBkg" xmlns="http://www.w3.org/1999/xhtml"><span class="edgeLabel"></span></div></foreignObject></g></g><g class="edgeLabel"><g transform="translate(0, 0)" class="label"><foreignObject height="0" width="0"><div style="display: table-cell; white-space: nowrap; line-height: 1.5; max-width: 200px; text-align: center;" class="labelBkg" xmlns="http://www.w3.org/1999/xhtml"><span class="edgeLabel"></span></div></foreignObject></g></g><g class="edgeLabel"><g transform="translate(0, 0)" class="label"><foreignObject height="0" width="0"><div style="display: table-cell; white-space: nowrap; line-height: 1.5; max-width: 200px; text-align: center;" class="labelBkg" xmlns="http://www.w3.org/1999/xhtml"><span class="edgeLabel"></span></div></foreignObject></g></g><g class="edgeLabel"><g transform="translate(0, 0)" class="label"><foreignObject height="0" width="0"><div style="display: table-cell; white-space: nowrap; line-height: 1.5; max-width: 200px; text-align: center;" class="labelBkg" xmlns="http://www.w3.org/1999/xhtml"><span class="edgeLabel"></span></div></foreignObject></g></g><g class="edgeLabel"><g transform="translate(0, 0)" class="label"><foreignObject height="0" width="0"><div style="display: table-cell; white-space: nowrap; line-height: 1.5; max-width: 200px; text-align: center;" class="labelBkg" xmlns="http://www.w3.org/1999/xhtml"><span class="edgeLabel"></span></div></foreignObject></g></g></g><g class="nodes"><g transform="translate(1612.0812530517578, 35)" id="flowchart-RemoteUser-0" class="node default"><rect height="54" width="177.7375030517578" y="-27" x="-88.8687515258789" style="" class="basic label-container"></rect><g transform="translate(-58.868751525878906, -12)" style="" class="label"><rect></rect><foreignObject height="24" width="117.73750305175781"><div style="display: table-cell; white-space: nowrap; line-height: 1.5; max-width: 200px; text-align: center;" xmlns="http://www.w3.org/1999/xhtml"><span class="nodeLabel"><p>🌐 Remote User</p></span></div></foreignObject></g></g><g transform="translate(1612.0812530517578, 139)" id="flowchart-katoGeek-1" class="node default"><rect height="54" width="193.3000030517578" y="-27" x="-96.6500015258789" style="" class="basic label-container"></rect><g transform="translate(-66.6500015258789, -12)" style="" class="label"><rect></rect><foreignObject height="24" width="133.3000030517578"><div style="display: table-cell; white-space: nowrap; line-height: 1.5; max-width: 200px; text-align: center;" xmlns="http://www.w3.org/1999/xhtml"><span class="nodeLabel"><p>🌍 kato-geek.com</p></span></div></foreignObject></g></g><g transform="translate(1911.2750053405762, 268)" id="flowchart-Authelia-3" class="node default"><rect height="54" width="195.4250030517578" y="-27" x="-97.7125015258789" style="" class="basic label-container"></rect><g transform="translate(-67.7125015258789, -12)" style="" class="label"><rect></rect><foreignObject height="24" width="135.4250030517578"><div style="display: table-cell; white-space: nowrap; line-height: 1.5; max-width: 200px; text-align: center;" xmlns="http://www.w3.org/1999/xhtml"><span class="nodeLabel"><p>🔐 Authelia (Auth)</p></span></div></foreignObject></g></g><g transform="translate(637.71875, 421)" id="flowchart-Homepage-5" class="node default"><rect height="54" width="241.2375030517578" y="-27" x="-120.6187515258789" style="" class="basic label-container"></rect><g transform="translate(-90.6187515258789, -12)" style="" class="label"><rect></rect><foreignObject height="24" width="181.2375030517578"><div style="display: table-cell; white-space: nowrap; line-height: 1.5; max-width: 200px; text-align: center;" xmlns="http://www.w3.org/1999/xhtml"><span class="nodeLabel"><p>🧭 Homepage Dashboard</p></span></div></foreignObject></g></g><g transform="translate(1167.9718742370605, 575)" id="flowchart-Frigate-7" class="node default"><rect height="54" width="171.2249984741211" y="-27" x="-85.61249923706055" style="" class="basic label-container"></rect><g transform="translate(-55.61249923706055, -12)" style="" class="label"><rect></rect><foreignObject height="24" width="111.2249984741211"><div style="display: table-cell; white-space: nowrap; line-height: 1.5; max-width: 200px; text-align: center;" xmlns="http://www.w3.org/1999/xhtml"><span class="nodeLabel"><p>📷 Frigate NVR</p></span></div></foreignObject></g></g><g transform="translate(1583.0500030517578, 575)" id="flowchart-HomeAssistant-9" class="node default"><rect height="54" width="195.0625" y="-27" x="-97.53125" style="" class="basic label-container"></rect><g transform="translate(-67.53125, -12)" style="" class="label"><rect></rect><foreignObject height="24" width="135.0625"><div style="display: table-cell; white-space: nowrap; line-height: 1.5; max-width: 200px; text-align: center;" xmlns="http://www.w3.org/1999/xhtml"><span class="nodeLabel"><p>🏠 Home Assistant</p></span></div></foreignObject></g></g><g transform="translate(740.5, 575)" id="flowchart-Portainer-11" class="node default"><rect height="54" width="152.7750015258789" y="-27" x="-76.38750076293945" style="" class="basic label-container"></rect><g transform="translate(-46.38750076293945, -12)" style="" class="label"><rect></rect><foreignObject height="24" width="92.7750015258789"><div style="display: table-cell; white-space: nowrap; line-height: 1.5; max-width: 200px; text-align: center;" xmlns="http://www.w3.org/1999/xhtml"><span class="nodeLabel"><p>📦 Portainer</p></span></div></foreignObject></g></g><g transform="translate(135.0062484741211, 575)" id="flowchart-UptimeKuma-13" class="node default"><rect height="54" width="184.01250457763672" y="-27" x="-92.00625228881836" style="" class="basic label-container"></rect><g transform="translate(-62.00625228881836, -12)" style="" class="label"><rect></rect><foreignObject height="24" width="124.01250457763672"><div style="display: table-cell; white-space: nowrap; line-height: 1.5; max-width: 200px; text-align: center;" xmlns="http://www.w3.org/1999/xhtml"><span class="nodeLabel"><p>📶 Uptime-Kuma</p></span></div></foreignObject></g></g><g transform="translate(1858.2937545776367, 575)" id="flowchart-pgAdmin-15" class="node default"><rect height="54" width="148.6750030517578" y="-27" x="-74.3375015258789" style="" class="basic label-container"></rect><g transform="translate(-44.337501525878906, -12)" style="" class="label"><rect></rect><foreignObject height="24" width="88.67500305175781"><div style="display: table-cell; white-space: nowrap; line-height: 1.5; max-width: 200px; text-align: center;" xmlns="http://www.w3.org/1999/xhtml"><span class="nodeLabel"><p>🧮 pgAdmin</p></span></div></foreignObject></g></g><g transform="translate(358.6687469482422, 575)" id="flowchart-Grafana-17" class="node default"><rect height="54" width="143.7125015258789" y="-27" x="-71.85625076293945" style="" class="basic label-container"></rect><g transform="translate(-41.85625076293945, -12)" style="" class="label"><rect></rect><foreignObject height="24" width="83.7125015258789"><div style="display: table-cell; white-space: nowrap; line-height: 1.5; max-width: 200px; text-align: center;" xmlns="http://www.w3.org/1999/xhtml"><span class="nodeLabel"><p>📊 Grafana</p></span></div></foreignObject></g></g><g transform="translate(1127.0625038146973, 421)" id="flowchart-Traefik-18" class="node default"><rect height="54" width="135.9375" y="-27" x="-67.96875" style="" class="basic label-container"></rect><g transform="translate(-37.96875, -12)" style="" class="label"><rect></rect><foreignObject height="24" width="75.9375"><div style="display: table-cell; white-space: nowrap; line-height: 1.5; max-width: 200px; text-align: center;" xmlns="http://www.w3.org/1999/xhtml"><span class="nodeLabel"><p>🕸️ Traefik</p></span></div></foreignObject></g></g><g transform="translate(1361.0312538146973, 421)" id="flowchart-SocketProxy-19" class="node default"><rect height="54" width="232" y="-27" x="-116" style="" class="basic label-container"></rect><g transform="translate(-86, -12)" style="" class="label"><rect></rect><foreignObject height="24" width="172"><div style="display: table-cell; white-space: nowrap; line-height: 1.5; max-width: 200px; text-align: center;" xmlns="http://www.w3.org/1999/xhtml"><span class="nodeLabel"><p>🧩 Docker Socket Proxy</p></span></div></foreignObject></g></g><g transform="translate(1289.446876525879, 833)" id="flowchart-Compreface-35" class="node default"><rect height="54" width="173.0625" y="-27" x="-86.53125" style="" class="basic label-container"></rect><g transform="translate(-56.53125, -12)" style="" class="label"><rect></rect><foreignObject height="24" width="113.0625"><div style="display: table-cell; white-space: nowrap; line-height: 1.5; max-width: 200px; text-align: center;" xmlns="http://www.w3.org/1999/xhtml"><span class="nodeLabel"><p>🧠 Compreface</p></span></div></foreignObject></g></g><g transform="translate(1228.2781257629395, 704)" id="flowchart-DoubleTake-37" class="node default"><rect height="54" width="174.6750030517578" y="-27" x="-87.3375015258789" style="" class="basic label-container"></rect><g transform="translate(-57.337501525878906, -12)" style="" class="label"><rect></rect><foreignObject height="24" width="114.67500305175781"><div style="display: table-cell; white-space: nowrap; line-height: 1.5; max-width: 200px; text-align: center;" xmlns="http://www.w3.org/1999/xhtml"><span class="nodeLabel"><p>🔍 Double-Take</p></span></div></foreignObject></g></g><g transform="translate(1912.9625053405762, 704)" id="flowchart-PostgreSQL-39" class="node default"><rect height="54" width="165.9625015258789" y="-27" x="-82.98125076293945" style="" class="basic label-container"></rect><g transform="translate(-52.98125076293945, -12)" style="" class="label"><rect></rect><foreignObject height="24" width="105.9625015258789"><div style="display: table-cell; white-space: nowrap; line-height: 1.5; max-width: 200px; text-align: center;" xmlns="http://www.w3.org/1999/xhtml"><span class="nodeLabel"><p>🐘 PostgreSQL</p></span></div></foreignObject></g></g><g transform="translate(1583.0500030517578, 704)" id="flowchart-Mosquitto-46" class="node default"><rect height="54" width="156.70000457763672" y="-27" x="-78.35000228881836" style="" class="basic label-container"></rect><g transform="translate(-48.35000228881836, -12)" style="" class="label"><rect></rect><foreignObject height="24" width="96.70000457763672"><div style="display: table-cell; white-space: nowrap; line-height: 1.5; max-width: 200px; text-align: center;" xmlns="http://www.w3.org/1999/xhtml"><span class="nodeLabel"><p>📨 Mosquitto</p></span></div></foreignObject></g></g><g transform="translate(358.46875, 421)" id="flowchart-Prometheus-56" class="node default"><rect height="54" width="170.8125" y="-27" x="-85.40625" style="" class="basic label-container"></rect><g transform="translate(-55.40625, -12)" style="" class="label"><rect></rect><foreignObject height="24" width="110.8125"><div style="display: table-cell; white-space: nowrap; line-height: 1.5; max-width: 200px; text-align: center;" xmlns="http://www.w3.org/1999/xhtml"><span class="nodeLabel"><p>📉 Prometheus</p></span></div></foreignObject></g></g><g transform="translate(165.0062484741211, 421)" id="flowchart-Loki-57" class="node default"><rect height="54" width="116.11249923706055" y="-27" x="-58.05624961853027" style="" class="basic label-container"></rect><g transform="translate(-28.056249618530273, -12)" style="" class="label"><rect></rect><foreignObject height="24" width="56.11249923706055"><div style="display: table-cell; white-space: nowrap; line-height: 1.5; max-width: 200px; text-align: center;" xmlns="http://www.w3.org/1999/xhtml"><span class="nodeLabel"><p>📄 Loki</p></span></div></foreignObject></g></g><g transform="translate(358.46875, 268)" id="flowchart-cAdvisor-58" class="node default"><rect height="54" width="146.75" y="-27" x="-73.375" style="" class="basic label-container"></rect><g transform="translate(-43.375, -12)" style="" class="label"><rect></rect><foreignObject height="24" width="86.75"><div style="display: table-cell; white-space: nowrap; line-height: 1.5; max-width: 200px; text-align: center;" xmlns="http://www.w3.org/1999/xhtml"><span class="nodeLabel"><p>📊 cAdvisor</p></span></div></foreignObject></g></g></g></g></g></g></svg>